<?xml version="1.0" standalone="no"?><!DOCTYPE svg PUBLIC "-//W3C//DTD SVG 1.1//EN" "http://www.w3.org/Graphics/SVG/1.1/DTD/svg11.dtd"><svg t="1510201850074" class="icon" style="" viewBox="0 0 1024 1024" version="1.1" xmlns="http://www.w3.org/2000/svg" p-id="8349" xmlns:xlink="http://www.w3.org/1999/xlink" width="32" height="32"><defs><style type="text/css"></style></defs><path d="M981.333333 341.333333c0 46.933333-38.4 85.333333-85.333333 85.333334a72.533333 72.533333 0 0 1-21.76-2.986667l-151.893333 151.466667c2.133333 6.826667 2.986667 14.506667 2.986666 22.186666 0 46.933333-38.4 85.333333-85.333333 85.333334s-85.333333-38.4-85.333333-85.333334c0-7.68 0.853333-15.36 2.986666-22.186666l-108.8-108.8c-6.826667 2.133333-14.506667 2.986667-22.186666 2.986666s-15.36-0.853333-22.186667-2.986666l-194.133333 194.56c2.133333 6.826667 2.986667 14.08 2.986666 21.76 0 46.933333-38.4 85.333333-85.333333 85.333333s-85.333333-38.4-85.333333-85.333333 38.4-85.333333 85.333333-85.333334c7.68 0 14.933333 0.853333 21.76 2.986667l194.56-194.133333C342.186667 399.36 341.333333 391.68 341.333333 384c0-46.933333 38.4-85.333333 85.333334-85.333333s85.333333 38.4 85.333333 85.333333c0 7.68-0.853333 15.36-2.986667 22.186667l108.8 108.8c6.826667-2.133333 14.506667-2.986667 22.186667-2.986667s15.36 0.853333 22.186667 2.986667l151.466666-151.893334A72.533333 72.533333 0 0 1 810.666667 341.333333c0-46.933333 38.4-85.333333 85.333333-85.333333s85.333333 38.4 85.333333 85.333333z" p-id="8350" fill="#108ee9"></path></svg>