<?xml version="1.0" standalone="no"?><!DOCTYPE svg PUBLIC "-//W3C//DTD SVG 1.1//EN" "http://www.w3.org/Graphics/SVG/1.1/DTD/svg11.dtd"><svg t="1510201920681" class="icon" style="" viewBox="0 0 1344 1024" version="1.1" xmlns="http://www.w3.org/2000/svg" p-id="9034" xmlns:xlink="http://www.w3.org/1999/xlink" width="42" height="32"><defs><style type="text/css"></style></defs><path d="M1086.656 415.616C1072.992 204.032 925.856 0 656 0 409.184 0 218.848 183.456 208.768 428.288 73.728 470.304 0 614.816 0 720 0 881.952 134.592 1024 288 1024l208 0c8.832 0 16-7.168 16-16S504.832 992 496 992L288 992c-136.384 0-256-127.104-256-272C32 622.368 117.568 448 288 448l48 0c8.832 0 16-7.168 16-16S344.832 416 336 416L288 416c-16.288 0-31.68 1.824-46.688 4.448C253.856 228.768 399.552 32 656 32 930.816 32 1056 247.648 1056 448l0 48c0 8.832 7.168 16 16 16s16-7.168 16-16L1088 448c0-0.096 0-0.192 0-0.288 96.608 10.592 224 114.272 224 272.288 0 122.432-118.112 272-256 272l-240 0c-103.616 0-144-40.384-144-144L672 409.056l130.496 130.24C805.632 542.432 809.728 544 813.824 544s8.192-1.568 11.328-4.672c6.24-6.24 6.24-16.416 0-22.624l-142.752-142.464c-19.008-18.944-33.76-18.944-52.736 0l-142.752 142.464c-6.24 6.208-6.24 16.384 0 22.624s16.384 6.24 22.624 0L640 409.056 640 848c0 121.728 54.272 176 176 176L1056 1024c155.104 0 288-167.168 288-304C1344 554.656 1208.864 425.344 1086.656 415.616z" p-id="9035" fill="#108ee9"></path></svg>