<?xml version="1.0" standalone="no"?><!DOCTYPE svg PUBLIC "-//W3C//DTD SVG 1.1//EN" "http://www.w3.org/Graphics/SVG/1.1/DTD/svg11.dtd"><svg t="1510217885946" class="icon" style="" viewBox="0 0 1024 1024" version="1.1" xmlns="http://www.w3.org/2000/svg" p-id="25358" xmlns:xlink="http://www.w3.org/1999/xlink" width="32" height="32"><defs><style type="text/css"></style></defs><path d="M665.6 0c104.192 0 155.648 0 210.432 17.152a220.16 220.16 0 0 1 130.816 130.816C1024 202.752 1024 254.208 1024 358.4v307.2c0 104.192 0 155.648-17.152 210.432a220.16 220.16 0 0 1-130.816 130.816C821.248 1024 769.792 1024 665.6 1024H358.4c-104.192 0-155.648 0-210.432-17.152a220.16 220.16 0 0 1-130.816-130.816C0 821.248 0 769.792 0 665.6V358.4c0-104.192 0-155.648 17.152-210.432A220.16 220.16 0 0 1 147.968 17.152C202.752 0 254.208 0 358.4 0z" fill="#8669D3" p-id="25359"></path><path d="M691.2 428.032l99.072-74.24a39.424 39.424 0 0 1 54.528-9.728v325.632a39.68 39.68 0 0 1-54.272-9.728L691.2 585.728zM235.264 307.2h374.272A56.576 56.576 0 0 1 665.6 364.288v295.424A56.576 56.576 0 0 1 609.536 716.8H235.264A56.576 56.576 0 0 1 179.2 659.712V364.288A56.576 56.576 0 0 1 235.264 307.2zM307.2 473.6a51.2 51.2 0 1 0-51.2-51.2 51.2 51.2 0 0 0 51.2 51.2z" fill="" p-id="25360"></path><path d="M691.2 428.032l99.072-74.24a39.424 39.424 0 0 1 54.528-9.728v325.632a39.68 39.68 0 0 1-54.272-9.728L691.2 585.728zM235.264 307.2h374.272A56.576 56.576 0 0 1 665.6 364.288v295.424A56.576 56.576 0 0 1 609.536 716.8H235.264A56.576 56.576 0 0 1 179.2 659.712V364.288A56.576 56.576 0 0 1 235.264 307.2zM307.2 473.6a51.2 51.2 0 1 0-51.2-51.2 51.2 51.2 0 0 0 51.2 51.2z" fill="#FFFFFF" p-id="25361"></path></svg>