<?xml version="1.0" standalone="no"?><!DOCTYPE svg PUBLIC "-//W3C//DTD SVG 1.1//EN" "http://www.w3.org/Graphics/SVG/1.1/DTD/svg11.dtd"><svg t="1526976403881" class="icon" style="" viewBox="0 0 1024 1024" version="1.1" xmlns="http://www.w3.org/2000/svg" p-id="24741" xmlns:xlink="http://www.w3.org/1999/xlink" width="32" height="32"><defs><style type="text/css"></style></defs><path d="M751.953134 537.095099l-5.198984-0.699864 0.299941-32.293692 5.698887-0.199961c0.09998 0 4.699082-0.399922 10.69791-5.398946 6.098809-4.999024 7.798477-17.296622 7.998438-20.995899l0.199961-7.198594c0-16.396798-25.694981-26.494825-50.990041-27.894552l-172.966217 0.099981 7.198594-28.594416c27.994532-56.788908 22.895528-132.274165 0.499902-167.26733-7.298574-11.497754-21.09588-20.296036-28.094513-20.296036-6.498731 0-15.496973 0-15.496973 26.194884 0 59.788323-6.098809 85.483304-16.496778 109.778559-10.098028 19.296231-47.690685 59.488381-95.18141 74.385471v284.244484l1.499707 0.799843c6.998633 3.899238 18.596368 10.297989 26.294865 13.997267 10.098028 4.899043 27.394649 9.698106 34.993165 9.698105h187.063464c27.294669 0 59.788323-5.698887 59.788323-32.793595 0-15.496973-5.298965-16.696739-7.898458-17.296621l-4.699082-1.099786 0.499903-25.595v-5.698887h5.998828c20.895919 0 43.391525-7.098614 43.391525-22.795548 0-14.397188-5.998828-16.596758-8.198399-17.396602l-3.799258-1.399727-0.399922-4.099199-0.399921-27.894552h9.298183c9.898067 0 27.894552-17.796524 28.194494-27.994533 0.299941-9.398164-2.599492-16.8967-7.998438-20.595977-2.699473-1.999609-9.098223-3.399336-11.797696-3.699277z" fill="#FBBF5D" p-id="24742"></path><path d="M916.02109 0H107.778949C48.290568 0 0 48.190588 0 107.778949V916.02109c0 59.488381 48.290568 107.778949 107.778949 107.778949h808.242141c59.488381 0 107.778949-48.290568 107.778949-107.778949V107.778949C1023.800039 48.190588 975.509471 0 916.02109 0zM775.948448 613.48018c4.799063 8.098418 7.298574 19.896114 7.298574 27.49463 0 23.495411-15.796915 42.191759-42.591681 50.990041 3.999219 7.198594 5.498926 13.897286 5.498926 22.995508 0 24.795157-12.397579 66.387034-95.581332 66.387034H470.008202c-18.896309 0-40.991994-4.19918-56.189026-10.59793-6.498731-2.799453-12.497559-5.698887-16.796719-7.798477-2.399531-1.199766-5.198985-2.499512-6.498731-3.099395-1.999609 0.499902-5.798867 3.299356-8.798282 5.598907l-2.299551 1.699668c-8.098418 5.998828-18.196446 13.497364-30.694005 13.897286-3.799258 0.09998-10.297989 0.199961-17.196641 0.199961-13.397383 0-31.293888-0.09998-31.293888-0.099981-37.092755 0-59.28842-22.695567-62.387815-63.887522l-22.395626-236.353837c0-23.395431 7.498535-43.491506 21.395822-57.08885 11.297793-11.097832 25.894942-16.99668 42.091778-16.99668h86.383129c43.691467 0 87.082992-45.391135 93.281781-57.08885 8.39836-19.696153 16.096856-41.991798 16.096856-94.281586 0-57.988674 34.193322-66.686975 54.589338-66.686975 12.59754 0 36.592853 4.499121 55.989064 34.793205 27.49463 42.891623 32.793595 121.776216 13.097442 183.064245h121.576255c50.990041 0 87.282953 26.394845 88.182777 64.087483 0 17.996485-8.298379 37.692638-17.096661 47.790666 11.297793 10.198008 17.296622 25.495021 17.296622 44.691271-0.09998 22.295645-18.096466 42.191759-32.393673 50.290178z" fill="#FBBF5D" p-id="24743"></path></svg>