<?xml version="1.0" standalone="no"?><!DOCTYPE svg PUBLIC "-//W3C//DTD SVG 1.1//EN" "http://www.w3.org/Graphics/SVG/1.1/DTD/svg11.dtd"><svg t="1521773015472" class="icon" style="" viewBox="0 0 1024 1024" version="1.1" xmlns="http://www.w3.org/2000/svg" p-id="4922" xmlns:xlink="http://www.w3.org/1999/xlink" width="128" height="128"><defs><style type="text/css"></style></defs><path d="M880 192h-736C117.44 192 96 213.44 96 240v544c0 26.56 21.44 48 48 48h736c26.56 0 48-21.44 48-48v-544c0-26.56-21.44-48-48-48z m16 406.08v185.92c0 8.96-7.04 16-16 16h-736c-8.96 0-16-7.04-16-16v-24-32l329.92-217.92 97.28 71.36 167.68-135.36L896 566.08v32z m0-73.28l-154.88-104.96c-5.76-3.84-11.84-5.76-17.952-5.76-6.048 0-12.48 1.92-17.92 5.76l-150.4 120.32-80.64-56.96a31.36 31.36 0 0 0-17.92-5.76c-6.08 0-12.16 1.92-17.92 5.76L128 689.28V240c0-8.96 7.04-16 16-16h736c8.96 0 16 7.04 16 16v284.8z" fill="#2D2220" p-id="4923"></path><path d="M416 352c0 29.76-20.48 54.72-48 61.76-27.52-7.04-48-32-48-61.76s20.48-54.72 48-61.76c27.52 7.04 48 32 48 61.76z" fill="#FFD561" p-id="4924"></path><path d="M896 598.08v185.92c0 8.96-7.04 16-16 16h-736c-8.96 0-16-7.04-16-16v-24l329.92-217.92 97.28 71.36 167.68-135.36L896 598.08z" fill="#5FFFBA" p-id="4925"></path><path d="M352 288c35.296 0 64 28.704 64 64s-28.704 64-64 64-64-28.704-64-64 28.704-64 64-64m0-32a96 96 0 1 0 0 192 96 96 0 0 0 0-192z" fill="#2D2220" p-id="4926"></path></svg>