<?xml version="1.0" standalone="no"?><!DOCTYPE svg PUBLIC "-//W3C//DTD SVG 1.1//EN" "http://www.w3.org/Graphics/SVG/1.1/DTD/svg11.dtd"><svg t="1510216523481" class="icon" style="" viewBox="0 0 1024 1024" version="1.1" xmlns="http://www.w3.org/2000/svg" p-id="18894" xmlns:xlink="http://www.w3.org/1999/xlink" width="32" height="32"><defs><style type="text/css"></style></defs><path d="M278 282h468v468H278z" fill="#8084E6" p-id="18895"></path><path d="M108 106h340v340H108z" fill="#8EEFEF" p-id="18896"></path><path d="M418 136v280H138V136h280m60-60H78v400h400V76z" fill="#1F7BBF" p-id="18897"></path><path d="M546 76h400v400H546z" fill="#8EEFEF" p-id="18898"></path><path d="M886 136v280H606V136h280m60-60H546v400h400V76z" fill="#1F7BBF" p-id="18899"></path><path d="M108 578h340v340H108z" fill="#8EEFEF" p-id="18900"></path><path d="M418 608v280H138V608h280m60-60H78v400h400V548z" fill="#1F7BBF" p-id="18901"></path><path d="M576 578h340v340H576z" fill="#8EEFEF" p-id="18902"></path><path d="M886 608v280H606V608h280m60-60H546v400h400V548z" fill="#1F7BBF" p-id="18903"></path></svg>