<?xml version="1.0" standalone="no"?><!DOCTYPE svg PUBLIC "-//W3C//DTD SVG 1.1//EN" "http://www.w3.org/Graphics/SVG/1.1/DTD/svg11.dtd"><svg t="1510217747632" class="icon" style="" viewBox="0 0 1024 1024" version="1.1" xmlns="http://www.w3.org/2000/svg" p-id="16045" xmlns:xlink="http://www.w3.org/1999/xlink" width="32" height="32"><defs><style type="text/css"></style></defs><path d="M895.109565 979.478261H149.593043A104.848696 104.848696 0 0 1 44.521739 875.074783v-734.608696A95.276522 95.276522 0 0 1 140.02087 44.521739H885.982609A93.273043 93.273043 0 0 1 979.478261 137.794783v757.982608A84.146087 84.146087 0 0 1 895.109565 979.478261z" fill="#17CC82" p-id="16046"></path><path d="M654.692174 489.73913h-356.173913a22.26087 22.26087 0 0 0 0 44.52174h356.173913a22.26087 22.26087 0 0 0 0-44.52174z" fill="#191919" p-id="16047"></path><path d="M725.25913 512.222609m-22.260869 0a22.26087 22.26087 0 1 0 44.521739 0 22.26087 22.26087 0 1 0-44.521739 0Z" fill="#191919" p-id="16048"></path><path d="M267.130435 979.478261H178.086957a133.565217 133.565217 0 0 1-133.565218-133.565218v-85.704347a22.26087 22.26087 0 0 0-44.521739 0V845.913043a178.086957 178.086957 0 0 0 178.086957 178.086957h89.043478a22.26087 22.26087 0 0 0 0-44.521739zM267.130435 0H178.086957a178.086957 178.086957 0 0 0-178.086957 178.086957v92.382608a22.26087 22.26087 0 0 0 44.521739 0V178.086957a133.565217 133.565217 0 0 1 133.565218-133.565218h89.043478a22.26087 22.26087 0 0 0 0-44.521739zM1001.73913 737.947826a22.26087 22.26087 0 0 0-22.260869 22.26087V845.913043a133.565217 133.565217 0 0 1-133.565218 133.565218h-89.043478a22.26087 22.26087 0 0 0 0 44.521739h89.043478a178.086957 178.086957 0 0 0 178.086957-178.086957v-85.704347a22.26087 22.26087 0 0 0-22.26087-22.26087zM845.913043 0h-89.043478a22.26087 22.26087 0 0 0 0 44.521739h89.043478a133.565217 133.565217 0 0 1 133.565218 133.565218v92.382608a22.26087 22.26087 0 1 0 44.521739 0V178.086957a178.086957 178.086957 0 0 0-178.086957-178.086957z" fill="#191919" p-id="16049"></path></svg>