<?xml version="1.0" standalone="no"?><!DOCTYPE svg PUBLIC "-//W3C//DTD SVG 1.1//EN" "http://www.w3.org/Graphics/SVG/1.1/DTD/svg11.dtd"><svg t="1510210032066" class="icon" style="" viewBox="0 0 1024 1024" version="1.1" xmlns="http://www.w3.org/2000/svg" p-id="1876" xmlns:xlink="http://www.w3.org/1999/xlink" width="32" height="32"><defs><style type="text/css"></style></defs><path d="M977.957361 325.137125c-25.563212-60.415998-62.150502-114.674763-108.745726-161.269987-46.595224-46.595224-100.855012-83.182514-161.271011-108.745726C645.373637 28.647457 578.935482 15.223726 510.47425 15.223726s-134.899386 13.423731-197.467397 39.896662c-60.415998 25.563212-114.674763 62.150502-161.269987 108.745727S68.554352 264.721127 42.99114 325.137125c-26.473955 62.568011-39.897685 129.005143-39.897685 197.467397 0 108.558461 33.844829 212.137515 97.874121 299.540144A510.307452 510.307452 0 0 0 210.713073 932.008866c42.531676 31.232328 89.369424 55.522548 139.211598 72.196299l1.75804 0.587378 1.824555 0.328481c23.004947 4.139274 37.737486-3.26844 46.045709-10.214643 10.991332-9.188266 17.294898-23.105231 17.294898-38.180577 0-4.336772-0.076748-11.893888-0.172939-21.460778-0.180102-17.888416-0.427742-42.389436-0.427742-68.245313v-31.666211l-30.959105 6.655584c-0.297782 0.064468-30.602995 6.303566-62.85863 3.230578-54.496172-5.182023-65.751516-31.000038-69.396533-41.654703 24.092721 24.397666 51.197032 32.298614 72.043826 34.165124 32.914644 2.953262 62.619176-7.858992 77.396741-14.560623l12.768815-5.791914 1.988284-13.879102c4.121877-28.777417 15.933901-43.233664 22.608927-49.288566l41.999556-38.105876-56.362682-6.266727c-97.319489-10.821463-196.807365-44.512796-196.807365-212.350363 0-42.961464 14.43885-80.650855 42.915416-112.020306l10.765181-11.858072-5.964852-14.863523c-4.096295-10.210549-15.181771-45.089941-0.206708-94.061282 9.248641 1.283226 25.170263 5.625114 50.868551 18.359136 26.313296 13.039991 48.472991 27.886117 48.684816 28.028357l9.797134 6.599302 11.377118-3.177366c36.048007-10.067286 75.319429-15.389502 113.567545-15.389502 38.249139 0 77.520561 5.321192 113.567545 15.389502l11.376095 3.177366 9.797134-6.599302c0.216941-0.146333 21.965268-14.742772 48.231491-27.802206 25.964348-12.911054 42.020022-17.294898 51.321876-18.58631 14.976086 48.971341 3.89061 83.851757-0.206708 94.062305l-5.963829 14.863523 10.765182 11.858072c28.476565 31.368428 42.915415 69.057819 42.915415 112.020306 0 76.324316-19.85521 130.030495-60.699454 164.18641-31.014364 25.934672-74.467015 41.23924-136.747477 48.163953l-58.582233 6.513344 44.767599 38.34226c7.121188 6.098905 23.683399 25.092491 23.683399 69.635986 0 43.187615-0.26913 80.756255-0.447185 105.616457-0.089028 12.475126-0.153496 21.490453-0.153496 26.761503 0 15.074324 6.303566 28.991288 17.294898 38.180578 6.646374 5.557576 17.402345 11.409864 33.215496 11.409864 3.955078 0 8.227382-0.366344 12.830213-1.195222l1.823532-0.328481 1.75804-0.587378c49.842175-16.673751 96.679923-40.962947 139.211598-72.196299a510.261403 510.261403 0 0 0 109.745497-109.8642c64.030315-87.402629 97.875145-190.981682 97.875145-299.540144 0.001023-68.463278-13.421684-134.90041-39.895639-197.46842z m-321.152371 629.865431a20.097734 20.097734 0 0 1-1.538029 0.127914c0.011256-5.265934 0.070608-13.634532 0.150426-24.800849 0.178055-24.931832 0.448208-62.612013 0.448208-105.981777 0-29.843702-5.765307-52.67878-13.488199-69.879534 39.537482-7.693216 84.830037-22.423709 122.023124-53.526077 25.261337-21.12411 44.715411-48.113811 57.824987-80.221066 14.07967-34.483372 21.218254-75.939553 21.218254-123.216299 0-50.903344-15.58393-96.194876-46.352701-134.842081 2.585895-9.417487 5.070482-21.773909 6.010901-36.511566 1.99954-31.333636-3.390213-63.382563-16.016789-95.25855l-4.494361-11.345396-11.647271-3.64604c-23.489994-7.352455-56.294121-0.298805-100.277867 21.572318-18.207687 9.05319-34.3002 18.657942-44.095288 24.781406-37.307697-9.370415-77.194126-14.296611-116.097158-14.296611-38.903032 0-78.789461 4.926196-116.098181 14.296611-9.795087-6.123464-25.886577-15.728216-44.094264-24.781406-43.983747-21.8701-76.783781-28.924773-100.278891-21.572318l-11.646248 3.64604-4.495384 11.345396c-12.627598 31.875988-18.016329 63.924915-16.016789 95.25855 0.940418 14.737656 3.425006 27.095102 6.010901 36.511566-30.772864 38.650275-46.352701 83.936691-46.352701 134.842081 0 47.134507 7.100722 88.494497 21.10569 122.929773 13.048177 32.084743 32.414247 59.077513 57.559951 80.232323 37.331233 31.404244 82.71691 46.191018 122.257461 53.875025-3.752464 8.355295-6.78759 17.35425-9.035794 26.853601-31.16172 10.889001-69.412906 11.019984-95.142917-34.290991l-0.069585-0.121773c-32.685423-56.827263-91.682096-62.108546-94.177939-62.306045l-0.830925-0.064468-0.833994-0.01228c-9.91993-0.12075-17.557888 0.796132-24.045649 2.931772-15.008832 4.940522-20.342304 15.422248-22.186302 21.230534-4.348028 13.703093 0.664126 27.523867 14.898315 41.081651 6.244214 5.947456 12.684904 10.410094 13.398148 10.899234l1.786693 1.223874 1.966794 0.907673c14.899338 6.869455 32.239262 36.591383 39.993876 55.846936 8.562003 25.449625 24.950252 45.179992 48.719608 58.648748 17.800411 10.084683 39.575344 16.410762 64.719001 18.802228 17.453511 1.659803 34.131355 1.184989 47.589878 0.078794 0.089028 14.886035 0.226151 28.463262 0.337691 39.528272 0.083911 8.30106 0.152473 15.06716 0.167822 19.348674a20.034289 20.034289 0 0 1-1.537006-0.127913C178.698938 892.020106 54.258765 718.525704 54.258765 522.603499c0-251.557316 204.657146-456.214463 456.214462-456.214463S966.688713 271.046183 966.688713 522.603499c0 195.923228-124.441197 369.417631-309.883723 432.399057z" p-id="1877" fill="#108ee9"></path></svg>