<?xml version="1.0" standalone="no"?><!DOCTYPE svg PUBLIC "-//W3C//DTD SVG 1.1//EN" "http://www.w3.org/Graphics/SVG/1.1/DTD/svg11.dtd"><svg t="1510201692179" class="icon" style="" viewBox="0 0 1024 1024" version="1.1" xmlns="http://www.w3.org/2000/svg" p-id="4332" xmlns:xlink="http://www.w3.org/1999/xlink" width="32" height="32"><defs><style type="text/css"></style></defs><path d="M952.105065 486.332411 551.909453 82.087577c0 0-15.874549-18.875906-40.078811-18.875906-26.237571 0-40.036855 18.887163-40.036855 18.887163L71.600223 486.377436c-11.07729 11.17041-11.07729 29.265534 0 40.444131 11.007705 11.142781 26.583448 2.606361 37.635155-8.524141l26.838252-27.142174L512.982886 117.561509l401.486 403.89998c11.006681 7.272637 28.01403 15.077394 37.635155 5.334495C963.181331 515.64297 963.181331 497.521241 952.105065 486.332411zM808.207747 467.726657c-12.298094 0-22.316262 10.05603-22.358217 22.476921l0 0.045025c0 0.047072 0 0.047072 0 0.095167l0 376.936885c0 24.976858-20.052708 45.213761-44.719504 45.213761l-99.457176 0 0-218.046085c0-47.417963-38.005592-85.831854-84.96409-85.831854l-89.714278 0c-46.958498 0-84.96409 38.413891-84.96409 85.831854l0 218.046085-99.454106 0c-24.666796 0-44.718481-20.23588-44.718481-45.213761L237.857804 490.272139c-0.022513-12.464893-10.038634-22.543436-22.336728-22.543436-12.344143 0-22.338774 10.080589-22.3838 22.543436l0 381.542786c0 47.430242 38.027082 85.844134 84.96102 85.844134l148.629085 0L426.727383 698.966229c0-24.963555 20.051685-45.187155 44.719504-45.187155l80.81049 0c24.667819 0 44.720527 20.22667 44.720527 45.187155l0 258.69283L745.604944 957.659059c46.933939 0 84.963067-38.413891 84.963067-85.84618L830.568011 490.203578C830.496379 477.784734 820.529377 467.726657 808.207747 467.726657z" p-id="4333" fill="#888888"></path></svg>