<?xml version="1.0" standalone="no"?><!DOCTYPE svg PUBLIC "-//W3C//DTD SVG 1.1//EN" "http://www.w3.org/Graphics/SVG/1.1/DTD/svg11.dtd"><svg t="1510217616888" class="icon" style="" viewBox="0 0 1024 1024" version="1.1" xmlns="http://www.w3.org/2000/svg" p-id="11997" xmlns:xlink="http://www.w3.org/1999/xlink" width="32" height="32"><defs><style type="text/css"></style></defs><path d="M102.4 0h819.2c56.32 0 102.4 46.08 102.4 102.4v819.2c0 56.32-46.08 102.4-102.4 102.4H102.4c-56.32 0-102.4-46.08-102.4-102.4V102.4c0-56.32 46.08-102.4 102.4-102.4z" fill="#72F2D0" p-id="11998"></path><path d="M337.92 657.92c-7.68 0-12.8-2.56-17.92-7.68l-125.44-117.76c-10.24-10.24-10.24-25.6-2.56-35.84l2.56-2.56 125.44-125.44c10.24-10.24 28.16-10.24 38.4 0s10.24 28.16 0 38.4L248.32 512l104.96 99.84c10.24 7.68 12.8 25.6 5.12 35.84-2.56 7.68-12.8 10.24-20.48 10.24zM686.08 657.92c-12.8 2.56-25.6-7.68-28.16-23.04 0-7.68 2.56-17.92 10.24-23.04l104.96-99.84-107.52-107.52c-10.24-10.24-10.24-28.16 0-38.4 10.24-10.24 28.16-10.24 38.4 0l125.44 125.44c10.24 10.24 10.24 25.6 2.56 35.84l-2.56 2.56-125.44 117.76c-5.12 7.68-10.24 10.24-17.92 10.24zM414.72 791.04c-15.36 0-25.6-10.24-28.16-23.04 0-5.12 0-7.68 2.56-12.8l197.12-504.32c5.12-12.8 20.48-20.48 33.28-15.36s20.48 20.48 15.36 33.28l-197.12 504.32c-2.56 10.24-12.8 17.92-23.04 17.92z" fill="#FFFFFF" p-id="11999"></path></svg>