<?xml version="1.0" standalone="no"?><!DOCTYPE svg PUBLIC "-//W3C//DTD SVG 1.1//EN" "http://www.w3.org/Graphics/SVG/1.1/DTD/svg11.dtd"><svg t="1510219477472" class="icon" style="" viewBox="0 0 1024 1024" version="1.1" xmlns="http://www.w3.org/2000/svg" p-id="72139" xmlns:xlink="http://www.w3.org/1999/xlink" width="32" height="32"><defs><style type="text/css"></style></defs><path d="M576 725.333333h106.666667c12.8 0 21.333333-8.533333 21.333333-21.333333v-128h-128v149.333333zM394.666667 362.666667H448s-6.4-64-53.333333-64c-29.866667 0-53.333333 14.933333-53.333334 32s23.466667 32 53.333334 32zM320 704c0 12.8 8.533333 21.333333 21.333333 21.333333h106.666667v-149.333333h-128v128zM234.666667 426.666667c0 12.8 8.533333 21.333333 21.333333 21.333333h192v-42.666667h-192c-12.8 0-21.333333 8.533333-21.333333 21.333334z" p-id="72140" fill="#F47A80"></path><path d="M896 0H128C57.6 0 0 57.6 0 128v768c0 70.4 57.6 128 128 128h768c70.4 0 128-57.6 128-128V128c0-70.4-57.6-128-128-128zM490.666667 576v192h-149.333334c-36.266667 0-64-27.733333-64-64v-170.666667h213.333334v42.666667z m0-170.666667v42.666667c0 23.466667-19.2 42.666667-42.666667 42.666667h-192c-36.266667 0-64-27.733333-64-64s27.733333-64 64-64h51.2c-6.4-8.533333-8.533333-21.333333-8.533333-32 0-42.666667 40.533333-74.666667 96-74.666667 57.6 0 89.6 51.2 96 98.133333V405.333333z m256 170.666667v128c0 36.266667-27.733333 64-64 64h-149.333334V533.333333h213.333334v42.666667z m21.333333-85.333333h-192c-23.466667 0-42.666667-19.2-42.666667-42.666667v-42.666667-46.933333c4.266667-49.066667 36.266667-102.4 96-102.4 55.466667 0 96 32 96 74.666667 0 10.666667-2.133333 23.466667-8.533333 32H768c36.266667 0 64 27.733333 64 64s-27.733333 64-64 64z" p-id="72141" fill="#F47A80"></path><path d="M768 405.333333h-192v42.666667h192c12.8 0 21.333333-8.533333 21.333333-21.333333s-8.533333-21.333333-21.333333-21.333334zM682.666667 330.666667c0-17.066667-23.466667-32-53.333334-32-46.933333 0-53.333333 64-53.333333 64h53.333333c29.866667 0 53.333333-14.933333 53.333334-32z" p-id="72142" fill="#F47A80"></path></svg>